<svg id="Ebene_1" data-name="Ebene 1" xmlns="http://www.w3.org/2000/svg" viewBox="0 0 68.63 13"><defs><style>.cls-1{fill:#231f20;stroke:#fcfcfc;stroke-miterlimit:1;stroke-width:0.41px;}.cls-2{fill:#241c24;}.cls-2,.cls-3{fill-rule:evenodd;}.cls-3{fill:#242424;}</style></defs><g id="g3776"><path id="path3764" class="cls-1" d="M71.5,7.2h5.73c-.33,3.88-4,.43-4.52,3h3c-.13,2.38-1.75,2.07-3.58,2-.63,2.06-.78,3.52-3.4,3Z" transform="translate(-42.27 -3.21)"/><path id="path3766" class="cls-1" d="M78.2,7.2h2.29l-2.15,6h3.39c.06,3.08-4.61,1.75-6.41,2Z" transform="translate(-42.27 -3.21)"/><path id="path3768" class="cls-1" d="M84.53,7.2H87c-1.08,1.75-1.86,9.59-5.33,8Z" transform="translate(-42.27 -3.21)"/><path id="path3770" class="cls-1" d="M91.24,14.38c-12.07,5,1-14.95,3-4.18H91.91c-3-3.64-4.94,7.11-.6,2h-1c.13-1.47,2.79-.91,3.69-1l-1.47,4C91.85,15.07,90.59,15.62,91.24,14.38Z" transform="translate(-42.27 -3.21)"/><path id="path3772" class="cls-1" d="M96.5,7.2c3.3-.47,1.72,1,1.31,3,4.49.8.78-3.87,5.49-3-1,1.37-2,9.77-5.09,8l1.1-3c-4.38-.81-1.09,3.89-5.69,3Z" transform="translate(-42.27 -3.21)"/><path id="path3774" class="cls-1" d="M105.4,9.2h-2.27c-.42-3.25,6-1.64,7.57-2-.35,1.75-1.06,2.29-2.83,2-1,1.88-1.29,7.26-4.61,6Z" transform="translate(-42.27 -3.21)"/></g><g id="svgg"><path id="path0" class="cls-2" d="M63.43,3.23a2.49,2.49,0,0,0-1,.85c-.11.16-.5.32-.55.54a9.34,9.34,0,0,0-1.41,2.47,4.2,4.2,0,0,1-.29.55c-.24.28-.08.73-.27,1s-.11,1.27-.37,1.6c-.16.73-.6,2.72-.15,3.4.48,1.38,2.2,1.63,3.52,1.37A4.52,4.52,0,0,0,65,13.52c.33-.78.52-2.16-.19-2.81S63.58,9.11,62.6,9.4c-1.26.95.34,1.1.47,1.9.09.27.22.31.1.66s.08.28-.09.45c-.22.58-.9,1.17-1.48.79-.32-.1-.12-.56-.31-.61s-.23-.35-.34-.45A6,6,0,0,1,61.07,10c.27-.62.21-1.52.51-2.11a11,11,0,0,0,1-2.19c.35-.33.66-.92,1.22-1.23s.31-1.37-.4-1.19m-16.49.82c-.38.12-1.23-.08-1.62.14a.69.69,0,0,0,0,1.32c.23.13,1,0,1.25.19a4.93,4.93,0,0,1,1.68.92,4.86,4.86,0,0,1,1,3.2c-.13.66.07,1.19-.32,1.79,0,.28-.3.41-.36.65a.91.91,0,0,1-.47.66c-.77.84-3.38,2.37-3.1.14.3-.79,1.14-.8,1.64-1.33.86-1.46-1.3-1.48-2.08-1a3.35,3.35,0,0,0-1.59,1.39A2.48,2.48,0,0,0,43,15.45c.65,1.13,2.58.81,3.65.24a4.81,4.81,0,0,0,2.26-1.48,14.58,14.58,0,0,0,1.18-1.9c.65-1.31,0,.95.26,1.35a2.53,2.53,0,0,0,.19,1.82.8.8,0,0,0,1.07.26,2.94,2.94,0,0,0,.13-2c0-1.07.12-2.66,1-3.33.29-.24.64-.4.79.05a.84.84,0,0,0,1.65,0,1.65,1.65,0,0,0-2.19-1.58,4.45,4.45,0,0,0-1.8,1.24c-.2.5-.44,1-.65,1.46a10.16,10.16,0,0,0-.74-5.24,3.63,3.63,0,0,0-2.8-2.28M59,5c-.71.08-1.2,1.32-2,1.1s-1.47-1.12-2.24-.63c-1.2.71-.23,1.57.67,1.86.61.35,1.68,1.41,2.36.85s.21-1.05.71-1.52c.22-.45.95-.5,1-1-.08-.36,0-.79-.53-.69M57.82,9c-1.09,0-.75,1.32-.84,2.14s-.37,2.81-1.1,3.21c-.61-.36-1.65-.3-1.61.6.17,1.2,2.29,1.16,2.73.19.07-.32.3-.45.5-.61.08-.46.24-.43.26-1,0-.27,0-.28.12-.38s0-.41.21-.55-.23-.16-.11-.33c0-.73,1.07-3.39-.16-3.28m-3.64,2.11h0" transform="translate(-42.27 -3.21)"/><path id="path1" class="cls-3" d="M54.14,11.11h0" transform="translate(-42.27 -3.21)"/><path id="path2" class="cls-3" d="M42.26,3.22" transform="translate(-42.27 -3.21)"/><path id="path3" class="cls-3" d="M42.26,3.22" transform="translate(-42.27 -3.21)"/><path id="path4" class="cls-3" d="M42.26,3.22" transform="translate(-42.27 -3.21)"/></g></svg>